<?xml version="1.0" standalone="no"?>
<!DOCTYPE svg PUBLIC "-//W3C//DTD SVG 20010904//EN"
 "http://www.w3.org/TR/2001/REC-SVG-20010904/DTD/svg10.dtd">
<svg version="1.0" xmlns="http://www.w3.org/2000/svg"
 width="591.000000pt" height="591.000000pt" viewBox="0 0 591.000000 591.000000"
 preserveAspectRatio="xMidYMid meet">
<metadata>
Created by potrace 1.14, written by Peter Selinger 2001-2017
</metadata>
<g transform="translate(0.000000,591.000000) scale(0.100000,-0.100000)"
fill="#000000" stroke="none">
<path d="M1664 5320 c-18 -4 -40 -11 -50 -15 -11 -5 -21 -9 -24 -9 -20 -4 -79
-34 -100 -51 -38 -31 -110 -103 -110 -110 0 -4 -8 -19 -19 -33 -39 -57 -62
-142 -67 -251 -8 -189 -24 -263 -82 -381 -32 -65 -101 -160 -152 -210 -31 -30
-110 -91 -110 -85 0 4 -13 -3 -30 -15 -28 -20 -125 -67 -125 -60 0 2 -11 -2
-23 -9 -13 -7 -33 -14 -45 -17 -12 -2 -33 -6 -47 -10 -14 -3 -65 -7 -115 -9
-138 -6 -207 -14 -221 -26 -8 -6 -14 -9 -14 -5 0 19 -131 -64 -179 -113 -93
-96 -132 -188 -132 -317 -1 -165 74 -308 201 -386 19 -12 38 -26 41 -31 3 -5
9 -8 13 -8 6 0 25 -5 53 -16 22 -8 41 -12 73 -18 14 -2 25 -4 25 -5 0 -1 52
-3 116 -4 63 -2 125 -8 136 -14 11 -6 23 -9 25 -6 3 2 18 -1 34 -7 16 -6 38
-13 49 -14 30 -5 178 -84 198 -107 9 -11 17 -17 17 -12 0 4 9 -1 19 -12 11
-10 38 -37 61 -59 46 -45 115 -146 148 -217 39 -84 61 -196 66 -328 6 -139 22
-200 76 -289 33 -54 156 -165 172 -155 4 3 8 1 8 -3 0 -5 24 -17 53 -27 54
-20 242 -31 262 -16 6 4 28 13 50 20 130 41 238 155 284 302 15 48 19 83 16
148 -5 121 -43 212 -126 301 -37 39 -129 105 -129 92 0 -4 -4 -2 -8 4 -4 7
-17 14 -27 16 -11 1 -24 5 -30 9 -22 13 -86 21 -190 24 -60 1 -111 3 -112 4
-2 2 -11 3 -20 5 -10 1 -30 5 -44 9 -14 4 -32 9 -40 10 -19 4 -51 16 -71 27
-10 5 -25 9 -33 9 -8 0 -15 3 -15 8 0 4 -15 13 -32 21 -38 16 -125 78 -165
119 -93 91 -153 189 -194 317 -31 95 -34 120 -33 300 0 131 4 184 18 230 53
182 156 329 301 432 53 37 146 84 156 78 5 -4 9 -2 9 3 0 11 46 26 110 37 14
2 25 4 25 5 0 6 57 11 161 14 67 2 131 9 142 15 12 6 25 10 29 9 21 -6 131 61
183 113 86 85 127 172 137 294 8 105 -33 242 -94 312 -11 12 -28 33 -38 47
-11 14 -25 26 -32 26 -7 0 -13 4 -13 8 0 8 -94 64 -112 68 -5 1 -10 3 -13 4
-3 1 -9 4 -15 5 -5 1 -11 3 -12 5 -17 13 -177 20 -224 10z"/>
<path d="M2896 5323 c-2 -2 -12 -5 -23 -7 -50 -10 -103 -30 -103 -39 0 -6 -3
-8 -6 -4 -11 11 -90 -50 -137 -105 -82 -97 -112 -186 -116 -341 -1 -48 -7
-111 -12 -140 -5 -28 -12 -65 -15 -82 -3 -16 -27 -76 -55 -131 -40 -82 -64
-117 -127 -180 -78 -81 -96 -96 -148 -126 -45 -28 -146 -75 -176 -83 -5 -2 -9
-3 -10 -5 -15 -11 -121 -24 -210 -24 -54 -1 -98 -4 -98 -7 0 -3 -12 -5 -27 -4
-16 1 -34 -2 -40 -8 -7 -5 -13 -7 -13 -3 0 22 -180 -78 -211 -118 -9 -11 -27
-32 -39 -46 -31 -35 -78 -136 -88 -192 -13 -64 -6 -172 14 -232 37 -109 127
-219 212 -257 18 -8 32 -17 32 -21 0 -5 11 -8 25 -8 14 0 25 -5 25 -10 0 -6 3
-9 8 -8 4 1 27 -2 52 -6 25 -5 88 -10 140 -12 119 -3 181 -11 193 -23 5 -5 16
-7 23 -4 8 3 14 1 14 -4 0 -5 9 -9 20 -10 29 -2 163 -71 193 -99 14 -13 30
-24 34 -24 15 0 138 -139 172 -194 76 -127 106 -240 114 -431 5 -128 24 -199
72 -269 13 -20 23 -36 20 -36 -10 0 74 -75 110 -99 22 -14 43 -30 46 -34 3 -5
10 -9 15 -9 11 -1 29 -6 67 -20 16 -6 43 -12 60 -13 18 -2 34 -4 37 -5 9 -4
54 -2 90 4 123 20 193 56 277 142 89 91 134 210 128 339 -4 78 -21 136 -62
205 -31 54 -104 140 -118 140 -4 0 -21 10 -38 22 -18 13 -34 23 -37 24 -3 0
-23 8 -45 18 -47 20 -84 26 -225 31 -58 2 -116 7 -130 10 -14 4 -32 8 -40 10
-19 3 -40 10 -118 42 -217 88 -388 289 -440 519 -20 86 -22 106 -22 244 0 241
52 387 203 563 27 32 51 56 54 54 2 -2 20 11 40 29 55 50 218 127 298 140 6 1
12 3 15 4 11 5 70 9 171 14 122 5 171 16 249 56 218 112 307 383 199 608 -27
55 -149 199 -149 176 0 -5 -5 -2 -10 6 -5 8 -13 15 -17 15 -4 1 -18 6 -29 13
-54 29 -124 46 -201 47 -46 1 -85 0 -87 -2z"/>
<path d="M2863 4045 c-167 -38 -310 -179 -349 -344 -15 -65 -11 -201 8 -251
44 -117 132 -216 240 -271 32 -16 60 -29 63 -29 3 0 6 0 8 -1 14 -4 50 -10 84
-13 23 -2 46 -7 52 -10 5 -4 12 -2 16 4 4 6 10 8 15 5 4 -3 36 -6 70 -7 34 -1
64 -6 66 -10 3 -4 11 -5 19 -2 22 9 138 -31 233 -79 42 -22 53 -29 135 -97 46
-37 127 -133 127 -149 0 -5 3 -11 8 -13 14 -6 63 -107 88 -185 23 -69 27 -97
29 -248 5 -219 -8 -283 -87 -441 -58 -117 -178 -241 -290 -299 -40 -21 -75
-41 -78 -44 -3 -3 -12 -7 -20 -8 -8 -1 -35 -9 -60 -18 -56 -20 -87 -25 -223
-31 -121 -5 -124 -5 -187 -24 -25 -7 -48 -13 -52 -12 -5 1 -8 -1 -8 -6 0 -4
-15 -13 -32 -21 -57 -25 -135 -102 -178 -176 -62 -108 -74 -264 -30 -388 13
-37 27 -67 32 -67 4 0 8 -7 8 -15 0 -8 5 -15 10 -15 6 0 10 -4 10 -10 0 -16
94 -104 137 -128 48 -26 116 -51 158 -59 49 -8 179 -3 193 7 1 2 5 3 10 5 19
5 49 18 73 31 14 7 29 11 33 7 3 -3 6 -1 6 5 0 7 5 12 10 12 10 0 55 36 92 75
28 28 80 105 72 105 -3 0 -1 6 5 13 25 31 41 105 46 215 7 132 10 164 26 230
16 69 84 205 134 271 57 75 193 191 224 191 6 0 11 5 11 10 0 6 3 9 8 8 4 -1
28 8 54 21 26 12 53 23 60 25 7 1 19 5 26 10 7 4 16 5 19 2 3 -3 12 -1 19 5
14 11 86 19 224 24 52 1 106 7 120 13 14 5 28 10 32 11 124 25 261 164 304
310 16 57 21 161 10 221 -20 104 -128 258 -211 300 -17 8 -33 19 -37 25 -4 5
-8 6 -8 1 0 -5 -6 -3 -13 3 -8 6 -22 12 -33 14 -10 1 -25 6 -32 11 -8 5 -61
10 -120 12 -128 5 -176 10 -224 22 -20 5 -39 7 -42 4 -4 -3 -6 0 -6 6 0 7 -3
11 -7 10 -16 -5 -141 49 -161 69 -7 7 -20 13 -28 13 -8 0 -14 5 -14 10 0 6 -7
10 -15 10 -8 0 -15 5 -15 10 0 6 -4 10 -9 10 -26 0 -151 145 -198 230 -65 118
-85 201 -98 425 -6 100 -15 136 -52 211 -26 53 -122 164 -142 164 -6 0 -11 5
-11 11 0 5 -4 8 -9 4 -5 -3 -13 0 -16 5 -6 9 -46 31 -65 34 -3 1 -9 4 -15 7
-37 23 -178 30 -252 14z"/>
<path d="M4065 4040 c-27 -10 -53 -15 -57 -13 -5 2 -8 -1 -8 -8 0 -7 -3 -9 -6
-6 -4 4 -19 -2 -34 -13 -16 -11 -31 -20 -35 -20 -3 0 -12 -6 -19 -12 -7 -7
-28 -26 -45 -41 -42 -37 -98 -126 -121 -192 -25 -72 -25 -208 0 -281 32 -92
69 -146 152 -220 28 -26 122 -74 143 -74 8 0 15 -4 15 -8 0 -4 15 -9 33 -11
62 -5 72 -7 83 -14 6 -3 14 -4 18 0 6 6 44 6 138 -1 15 -1 30 -5 33 -8 4 -4
13 -4 20 -2 18 7 175 -45 175 -58 0 -6 3 -8 7 -5 6 6 111 -47 123 -62 3 -3 29
-26 59 -51 122 -101 224 -284 249 -450 13 -89 6 -341 -12 -410 -22 -82 -95
-232 -138 -284 -63 -76 -135 -142 -180 -165 -16 -8 -28 -18 -28 -22 0 -4 -13
-10 -30 -14 -16 -4 -30 -10 -30 -14 0 -9 -134 -56 -185 -66 -16 -3 -79 -8
-140 -11 -60 -3 -122 -7 -137 -7 -14 -1 -30 -5 -34 -9 -4 -5 -15 -8 -25 -8
-39 0 -153 -71 -209 -130 -82 -89 -114 -173 -114 -305 -1 -141 30 -226 113
-312 60 -63 87 -84 141 -109 90 -43 180 -56 275 -39 28 5 52 9 55 9 20 3 100
42 100 49 0 4 4 6 9 3 10 -7 131 108 155 147 45 74 65 152 70 279 6 161 25
239 87 367 42 86 64 117 127 180 73 73 175 149 194 143 4 -1 8 3 8 9 0 5 5 7
10 4 6 -3 10 -2 10 3 0 6 12 13 28 18 35 10 32 9 65 22 54 23 118 31 280 37
60 2 114 8 120 13 7 6 23 12 37 14 14 1 27 5 30 8 3 3 23 14 45 25 59 29 156
131 190 200 27 54 30 71 34 178 4 139 -6 185 -60 265 -61 94 -112 139 -199
179 -66 30 -125 41 -220 41 -103 1 -146 6 -219 28 -31 9 -60 17 -66 18 -5 1
-20 8 -32 14 -13 7 -23 10 -23 7 0 -4 -13 3 -29 14 -16 12 -34 21 -40 21 -6 0
-11 4 -11 9 0 5 -8 11 -17 15 -32 10 -57 30 -128 102 -77 79 -122 148 -165
252 -37 92 -49 154 -55 297 -8 160 -29 230 -99 320 -62 81 -125 125 -232 161
-67 22 -187 24 -249 4z"/>
</g>
</svg>
